<?xml version="1.0" encoding="UTF-8" standalone="no"?>
<!DOCTYPE svg PUBLIC "-//W3C//DTD SVG 1.1//EN"
 "http://www.w3.org/Graphics/SVG/1.1/DTD/svg11.dtd">
<!-- Generated by graphviz version 2.26.3 (20100126.1600)
 -->
<!-- Title: G Pages: 1 -->
<svg width="560pt" height="484pt"
 viewBox="0.00 0.00 560.00 484.00" xmlns="http://www.w3.org/2000/svg" xmlns:xlink="http://www.w3.org/1999/xlink">
<g id="graph1" class="graph" transform="scale(1 1) rotate(0) translate(4 480)">
<title>G</title>
<polygon fill="white" stroke="white" points="-4,5 -4,-480 557,-480 557,5 -4,5"/>
<g id="node1" class="node"><title></title>
<ellipse fill="none" stroke="black" cx="305" cy="-458" rx="27" ry="18"/>
</g>
<!-- Disconnected (trying Ethernet) -->
<g id="node3" class="node"><title>Disconnected (trying Ethernet)</title>
<ellipse fill="none" stroke="black" cx="305" cy="-376" rx="83.7944" ry="18"/>
<text text-anchor="middle" x="305" y="-373.8" font-family="Bitstream Vera Sans" font-size="8.00">Disconnected (trying Ethernet)</text>
</g>
<!-- &#45;&gt;Disconnected (trying Ethernet) -->
<g id="edge2" class="edge"><title>&#45;&gt;Disconnected (trying Ethernet)</title>
<path fill="none" stroke="black" d="M305,-439.802C305,-429.398 305,-416.122 305,-404.377"/>
<polygon fill="black" stroke="black" points="305,-394.148 309.5,-404.148 305,-399.148 305,-404.148 305,-404.148 305,-404.148 305,-399.148 300.5,-404.148 305,-394.148 305,-394.148"/>
<text text-anchor="middle" x="311.5" y="-414.8" font-family="Bitstream Vera Sans" font-size="8.00">init</text>
</g>
<!-- Connected via Ethernet\nProvides internal Wifi -->
<g id="node5" class="node"><title>Connected via Ethernet\nProvides internal Wifi</title>
<ellipse fill="none" stroke="black" cx="157" cy="-20" rx="82.0244" ry="19.799"/>
<text text-anchor="middle" x="157" y="-22.8" font-family="Bitstream Vera Sans" font-size="8.00">Connected via Ethernet</text>
<text text-anchor="middle" x="157" y="-12.8" font-family="Bitstream Vera Sans" font-size="8.00">Provides internal Wifi</text>
</g>
<!-- Disconnected (trying Ethernet)&#45;&gt;Connected via Ethernet\nProvides internal Wifi -->
<g id="edge4" class="edge"><title>Disconnected (trying Ethernet)&#45;&gt;Connected via Ethernet\nProvides internal Wifi</title>
<path fill="none" stroke="black" d="M225.263,-370.273C134.894,-361.536 0,-340.675 0,-294 0,-294 0,-294 0,-104 0,-65.1003 37.934,-44.1467 76.5094,-32.8954"/>
<polygon fill="black" stroke="black" points="86.3078,-30.2389 77.8338,-37.1989 81.482,-31.5473 76.6563,-32.8557 76.6563,-32.8557 76.6563,-32.8557 81.482,-31.5473 75.4787,-28.5125 86.3078,-30.2389 86.3078,-30.2389"/>
<text text-anchor="middle" x="55.5" y="-209.8" font-family="Bitstream Vera Sans" font-size="8.00">Ethernet Cable plugged in</text>
</g>
<!-- Disconnected (trying internal Wifi) -->
<g id="node7" class="node"><title>Disconnected (trying internal Wifi)</title>
<ellipse fill="none" stroke="black" cx="221" cy="-294" rx="91.7987" ry="18"/>
<text text-anchor="middle" x="221" y="-291.8" font-family="Bitstream Vera Sans" font-size="8.00">Disconnected (trying internal Wifi)</text>
</g>
<!-- Disconnected (trying Ethernet)&#45;&gt;Disconnected (trying internal Wifi) -->
<g id="edge6" class="edge"><title>Disconnected (trying Ethernet)&#45;&gt;Disconnected (trying internal Wifi)</title>
<path fill="none" stroke="black" d="M286.773,-358.207C274.995,-346.71 259.498,-331.581 246.505,-318.898"/>
<polygon fill="black" stroke="black" points="239.191,-311.758 249.49,-315.523 242.769,-315.251 246.347,-318.743 246.347,-318.743 246.347,-318.743 242.769,-315.251 243.204,-321.964 239.191,-311.758 239.191,-311.758"/>
<text text-anchor="middle" x="284.5" y="-332.8" font-family="Bitstream Vera Sans" font-size="8.00">fallback</text>
</g>
<!-- Connected via Ethernet\nProvides internal Wifi&#45;&gt;Disconnected (trying Ethernet) -->
<g id="edge16" class="edge"><title>Connected via Ethernet\nProvides internal Wifi&#45;&gt;Disconnected (trying Ethernet)</title>
<path fill="none" stroke="black" d="M233.107,-27.4567C317.231,-37.8616 441,-60.5526 441,-104 441,-294 441,-294 441,-294 441,-328.128 409.204,-348.423 376.361,-360.284"/>
<polygon fill="black" stroke="black" points="366.633,-363.556 374.677,-356.103 371.373,-361.962 376.112,-360.368 376.112,-360.368 376.112,-360.368 371.373,-361.962 377.546,-364.633 366.633,-363.556 366.633,-363.556"/>
<text text-anchor="middle" x="496.5" y="-209.8" font-family="Bitstream Vera Sans" font-size="8.00">Ethernet Cable unplugged</text>
</g>
<!-- Connected via internal Wifi -->
<g id="node9" class="node"><title>Connected via internal Wifi</title>
<ellipse fill="none" stroke="black" cx="114" cy="-158" rx="73.9783" ry="18"/>
<text text-anchor="middle" x="114" y="-155.8" font-family="Bitstream Vera Sans" font-size="8.00">Connected via internal Wifi</text>
</g>
<!-- Disconnected (trying internal Wifi)&#45;&gt;Connected via internal Wifi -->
<g id="edge8" class="edge"><title>Disconnected (trying internal Wifi)&#45;&gt;Connected via internal Wifi</title>
<path fill="none" stroke="black" d="M165.572,-279.528C154.438,-274.346 143.784,-267.367 136,-258 127.063,-247.245 120.802,-211.942 117.303,-186.325"/>
<polygon fill="black" stroke="black" points="116.014,-176.377 121.762,-185.716 116.656,-181.336 117.299,-186.295 117.299,-186.295 117.299,-186.295 116.656,-181.336 112.836,-186.873 116.014,-176.377 116.014,-176.377"/>
<text text-anchor="middle" x="205.5" y="-250.8" font-family="Bitstream Vera Sans" font-size="8.00">Internal Wifi (becomes) available</text>
</g>
<!-- Disconnected (trying custom Wifi) -->
<g id="node11" class="node"><title>Disconnected (trying custom Wifi)</title>
<ellipse fill="none" stroke="black" cx="301" cy="-212" rx="91.2213" ry="18"/>
<text text-anchor="middle" x="301" y="-209.8" font-family="Bitstream Vera Sans" font-size="8.00">Disconnected (trying custom Wifi)</text>
</g>
<!-- Disconnected (trying internal Wifi)&#45;&gt;Disconnected (trying custom Wifi) -->
<g id="edge10" class="edge"><title>Disconnected (trying internal Wifi)&#45;&gt;Disconnected (trying custom Wifi)</title>
<path fill="none" stroke="black" d="M255.366,-277.124C263.827,-271.838 272.356,-265.414 279,-258 283.843,-252.596 287.84,-245.937 291.036,-239.38"/>
<polygon fill="black" stroke="black" points="295.152,-230.005 295.253,-240.971 293.142,-234.583 291.132,-239.162 291.132,-239.162 291.132,-239.162 293.142,-234.583 287.012,-237.353 295.152,-230.005 295.152,-230.005"/>
<text text-anchor="middle" x="301.5" y="-250.8" font-family="Bitstream Vera Sans" font-size="8.00">fallback</text>
</g>
<!-- Connected via internal Wifi&#45;&gt;Connected via Ethernet\nProvides internal Wifi -->
<g id="edge18" class="edge"><title>Connected via internal Wifi&#45;&gt;Connected via Ethernet\nProvides internal Wifi</title>
<path fill="none" stroke="black" d="M108.153,-139.776C104.344,-124.931 101.08,-103.619 107,-86 111.753,-71.8551 120.872,-58.3296 130.036,-47.247"/>
<polygon fill="black" stroke="black" points="136.654,-39.6349 133.489,-50.134 133.373,-43.4081 130.093,-47.1814 130.093,-47.1814 130.093,-47.1814 133.373,-43.4081 126.697,-44.2288 136.654,-39.6349 136.654,-39.6349"/>
<text text-anchor="middle" x="162.5" y="-101.8" font-family="Bitstream Vera Sans" font-size="8.00">Ethernet Cable plugged in</text>
</g>
<!-- Disconnected (trying custom Wifi)&#45;&gt;Disconnected (trying Ethernet) -->
<g id="edge14" class="edge"><title>Disconnected (trying custom Wifi)&#45;&gt;Disconnected (trying Ethernet)</title>
<path fill="none" stroke="black" d="M313.895,-229.85C317.2,-235.398 320.3,-241.714 322,-248 331.142,-281.815 322.79,-322.038 314.894,-348.249"/>
<polygon fill="black" stroke="black" points="311.816,-357.898 310.568,-347.003 313.336,-353.134 314.855,-348.371 314.855,-348.371 314.855,-348.371 313.336,-353.134 319.142,-349.739 311.816,-357.898 311.816,-357.898"/>
<text text-anchor="middle" x="341.5" y="-291.8" font-family="Bitstream Vera Sans" font-size="8.00">fallback</text>
</g>
<!-- Connected via custom Wifi -->
<g id="node13" class="node"><title>Connected via custom Wifi</title>
<ellipse fill="none" stroke="black" cx="301" cy="-104" rx="73.9008" ry="18"/>
<text text-anchor="middle" x="301" y="-101.8" font-family="Bitstream Vera Sans" font-size="8.00">Connected via custom Wifi</text>
</g>
<!-- Disconnected (trying custom Wifi)&#45;&gt;Connected via custom Wifi -->
<g id="edge12" class="edge"><title>Disconnected (trying custom Wifi)&#45;&gt;Connected via custom Wifi</title>
<path fill="none" stroke="black" d="M293.128,-194.021C291.029,-188.365 289.054,-182.022 288,-176 285.242,-160.24 285.242,-155.76 288,-140 288.478,-137.271 289.144,-134.477 289.926,-131.71"/>
<polygon fill="black" stroke="black" points="293.128,-121.979 294.277,-132.885 291.565,-126.729 290.002,-131.478 290.002,-131.478 290.002,-131.478 291.565,-126.729 285.728,-130.072 293.128,-121.979 293.128,-121.979"/>
<text text-anchor="middle" x="357.5" y="-155.8" font-family="Bitstream Vera Sans" font-size="8.00">Custom Wifi (becomes) available</text>
</g>
<!-- Connected via custom Wifi&#45;&gt;Connected via Ethernet\nProvides internal Wifi -->
<g id="edge20" class="edge"><title>Connected via custom Wifi&#45;&gt;Connected via Ethernet\nProvides internal Wifi</title>
<path fill="none" stroke="black" d="M272.206,-87.2032C250.809,-74.7218 221.334,-57.5279 197.554,-43.6564"/>
<polygon fill="black" stroke="black" points="188.748,-38.5194 199.653,-39.6712 193.067,-41.0388 197.385,-43.5582 197.385,-43.5582 197.385,-43.5582 193.067,-41.0388 195.118,-47.4452 188.748,-38.5194 188.748,-38.5194"/>
<text text-anchor="middle" x="292.5" y="-60.8" font-family="Bitstream Vera Sans" font-size="8.00">Ethernet Cable plugged in</text>
</g>
</g>
</svg>
